<svg width="60" height="60" viewBox="0 0 60 60" fill="none" xmlns="http://www.w3.org/2000/svg">
<g clip-path="url(#clip0_174_64)">
<path d="M18.9885 39C23.1401 39 26.9603 37.6274 29.9997 35.3237C33.0391 37.6274 36.8593 39 41.0109 39C50.9354 39 58.9652 31.1567 58.9652 21.5C58.9652 11.8433 50.9354 4 41.0109 4C36.8593 4 33.0391 5.37259 29.9997 7.67633C26.9603 5.37259 23.1401 4 18.9885 4C9.06402 4 1.03418 11.8433 1.03418 21.5C1.03418 31.1567 9.06402 39 18.9885 39Z" stroke="black" stroke-width="2"/>
<path d="M16.5521 30.25C21.2655 30.25 25.0865 26.5563 25.0865 22C25.0865 17.4437 21.2655 13.75 16.5521 13.75C11.8386 13.75 8.01758 17.4437 8.01758 22C8.01758 26.5563 11.8386 30.25 16.5521 30.25Z" stroke="black" stroke-width="0.5" stroke-linecap="round" stroke-dasharray="2 2"/>
<path d="M43.4485 30.25C48.162 30.25 51.983 26.5563 51.983 22C51.983 17.4437 48.162 13.75 43.4485 13.75C38.7351 13.75 34.9141 17.4437 34.9141 22C34.9141 26.5563 38.7351 30.25 43.4485 30.25Z" stroke="black" stroke-width="0.5" stroke-linecap="round" stroke-dasharray="2 2"/>
<path d="M30 1V59" stroke="black" stroke-width="2" stroke-linecap="round"/>
</g>
<defs>
<clipPath id="clip0_174_64">
<rect width="60" height="60" fill="white"/>
</clipPath>
</defs>
</svg>
